<svg xmlns="http://www.w3.org/2000/svg" viewBox="0 0 100 100"><defs><style>.cls-1{fill:#fff;}</style></defs><g id="Layer_2" data-name="Layer 2"><g id="Layer_1-2" data-name="Layer 1"><path class="cls-1" d="M50,0a50,50,0,1,0,50,50A50,50,0,0,0,50,0ZM24.67,51.68l.21-.34L37.89,31a.45.45,0,0,1,.61-.13h0a.35.35,0,0,1,.16.18c2.17,4.87,4,10.93,3.17,14.7a23,23,0,0,1-2.56,5.59c-.15.28-.31.56-.49.83a.44.44,0,0,1-.37.19H25.05a.44.44,0,0,1-.46-.42h0A.5.5,0,0,1,24.67,51.68Zm58,7a.45.45,0,0,1-.27.42c-1,.43-4.46,2-5.89,4C72.82,68.2,70,75.48,63.78,75.48H37.72A16.73,16.73,0,0,1,21,58.74V58.4a.47.47,0,0,1,.45-.44H36a.5.5,0,0,1,.48.52h0A4.84,4.84,0,0,0,37,61.3a5.11,5.11,0,0,0,4.58,2.84h7.19V58.53H41.63a.47.47,0,0,1-.45-.47.44.44,0,0,1,.08-.25l.26-.38c.67-1,1.63-2.44,2.59-4.13a32.3,32.3,0,0,0,1.79-3.58c.1-.22.18-.45.27-.67.14-.39.28-.76.38-1.12s.19-.63.27-.93a14.5,14.5,0,0,0,.34-3.28,10.32,10.32,0,0,0-.06-1.36c-.06-.44-.08-1-.14-1.47s-.12-.86-.2-1.3c-.11-.65-.25-1.3-.41-2l-.06-.25c-.12-.45-.23-.87-.37-1.32-.41-1.4-.87-2.77-1.37-4-.18-.51-.38-1-.59-1.48-.3-.74-.61-1.41-.89-2-.15-.29-.27-.55-.39-.82s-.28-.6-.43-.89a6.09,6.09,0,0,1-.3-.63l-.88-1.62a.28.28,0,0,1,.1-.38h0a.23.23,0,0,1,.2,0l5.5,1.49.72.21.8.22.29.08v-3.3A2.84,2.84,0,0,1,51.49,20h0a2.74,2.74,0,0,1,2,.84,2.83,2.83,0,0,1,.83,2v4.85l.59.16.13.07.61.46c.21.16.43.36.69.57.53.43,1.17,1,1.86,1.61.18.16.36.32.53.49.89.83,1.89,1.8,2.85,2.88.27.31.53.61.8.94s.55.65.79,1,.67.88,1,1.35c.14.22.31.45.44.67.39.59.74,1.19,1.07,1.81.14.28.28.59.4.89A12,12,0,0,1,67,43.07a2.57,2.57,0,0,1,.12.55,4.91,4.91,0,0,1,.1.77A8.49,8.49,0,0,1,67.05,47c-.08.36-.18.7-.3,1.07a10.53,10.53,0,0,1-.41,1.06,15.44,15.44,0,0,1-1.1,2.09c-.14.25-.31.51-.47.76s-.37.51-.53.75a9.11,9.11,0,0,1-.72.92,9.4,9.4,0,0,1-.69.87c-.34.41-.67.79-1,1.16a7.3,7.3,0,0,1-.65.71c-.22.25-.45.47-.65.67l-.87.84-.57.51a.42.42,0,0,1-.3.12h-4.4v5.61H59.9a5.14,5.14,0,0,0,3.35-1.24,41.22,41.22,0,0,0,3.4-3.34.46.46,0,0,1,.21-.13L82.07,55a.44.44,0,0,1,.55.3h0a.39.39,0,0,1,0,.15Z"/></g></g></svg>